<mxfile host="65bd71144e">
    <diagram id="rv9lSFPqjTdXBc9GjLnV" name="UML">
        <mxGraphModel dx="1137" dy="1615" grid="1" gridSize="10" guides="1" tooltips="1" connect="1" arrows="1" fold="1" page="1" pageScale="1" pageWidth="850" pageHeight="1100" math="0" shadow="0">
            <root>
                <mxCell id="0"/>
                <mxCell id="1" parent="0"/>
                <mxCell id="2" value="&amp;lt;&amp;lt;RadioLogic&amp;gt;&amp;gt;&lt;br&gt;&lt;b&gt;Radio&lt;/b&gt;&lt;br&gt;{class}" style="swimlane;fontStyle=0;align=center;verticalAlign=top;childLayout=stackLayout;horizontal=1;startSize=55;horizontalStack=0;resizeParent=1;resizeParentMax=0;resizeLast=0;collapsible=0;marginBottom=0;html=1;fillColor=#a20025;fontColor=#ffffff;strokeColor=#6F0000;" parent="1" vertex="1">
                    <mxGeometry x="40" y="120" width="260" height="338" as="geometry"/>
                </mxCell>
                <mxCell id="3" value="attributes" style="text;html=1;strokeColor=none;fillColor=none;align=center;verticalAlign=middle;spacingLeft=4;spacingRight=4;overflow=hidden;rotatable=0;points=[[0,0.5],[1,0.5]];portConstraint=eastwest;" parent="2" vertex="1">
                    <mxGeometry y="55" width="260" height="20" as="geometry"/>
                </mxCell>
                <mxCell id="4" value="&lt;p style=&quot;line-height: 100%;&quot;&gt;- encendido: Boolan&lt;/p&gt;&lt;p style=&quot;line-height: 30%;&quot;&gt;&lt;span style=&quot;background-color: initial;&quot;&gt;# marca: String&lt;/span&gt;&lt;/p&gt;&lt;p style=&quot;line-height: 30%;&quot;&gt;- banda: int&lt;/p&gt;&lt;p style=&quot;line-height: 30%;&quot;&gt;- estacion: float&lt;/p&gt;&lt;p style=&quot;line-height: 30%;&quot;&gt;- volume: int[0,100]&lt;/p&gt;&lt;p style=&quot;line-height: 30%;&quot;&gt;&lt;u&gt;+ AM = 0&lt;/u&gt;&lt;/p&gt;&lt;p style=&quot;line-height: 30%;&quot;&gt;&lt;u&gt;+ FM = 1&lt;/u&gt;&lt;/p&gt;" style="text;html=1;strokeColor=none;fillColor=none;align=left;verticalAlign=middle;spacingLeft=4;spacingRight=4;overflow=hidden;rotatable=0;points=[[0,0.5],[1,0.5]];portConstraint=eastwest;" parent="2" vertex="1">
                    <mxGeometry y="75" width="260" height="135" as="geometry"/>
                </mxCell>
                <mxCell id="7" value="" style="line;strokeWidth=1;fillColor=#a20025;align=left;verticalAlign=middle;spacingTop=-1;spacingLeft=3;spacingRight=3;rotatable=0;labelPosition=right;points=[];portConstraint=eastwest;fontColor=#ffffff;strokeColor=#6F0000;" parent="2" vertex="1">
                    <mxGeometry y="210" width="260" height="8" as="geometry"/>
                </mxCell>
                <mxCell id="8" value="operations" style="text;html=1;strokeColor=none;fillColor=none;align=center;verticalAlign=middle;spacingLeft=4;spacingRight=4;overflow=hidden;rotatable=0;points=[[0,0.5],[1,0.5]];portConstraint=eastwest;" parent="2" vertex="1">
                    <mxGeometry y="218" width="260" height="20" as="geometry"/>
                </mxCell>
                <mxCell id="9" value="&lt;p style=&quot;line-height: 100%;&quot;&gt;&lt;font color=&quot;#b3b3b3&quot;&gt;+ SetOn():bool&lt;/font&gt;&lt;/p&gt;&lt;p style=&quot;line-height: 40%;&quot;&gt;&lt;font color=&quot;#b3b3b3&quot;&gt;+ SetVolume(int VolumeNumber): void&lt;/font&gt;&lt;/p&gt;&lt;p style=&quot;line-height: 40%;&quot;&gt;&lt;font color=&quot;#b3b3b3&quot;&gt;+ SetEstacion(Float Estacion, int Banda): void&lt;/font&gt;&lt;/p&gt;&lt;p style=&quot;line-height: 40%;&quot;&gt;&lt;font color=&quot;#b3b3b3&quot;&gt;...&lt;/font&gt;&lt;/p&gt;" style="text;html=1;strokeColor=none;fillColor=none;align=left;verticalAlign=middle;spacingLeft=4;spacingRight=4;overflow=hidden;rotatable=0;points=[[0,0.5],[1,0.5]];portConstraint=eastwest;" parent="2" vertex="1">
                    <mxGeometry y="238" width="260" height="100" as="geometry"/>
                </mxCell>
                <mxCell id="10" value="&amp;lt;&amp;lt;Estaciones&amp;gt;&amp;gt;&lt;br&gt;&lt;b&gt;Estaciones&lt;/b&gt;&lt;br&gt;{class}" style="swimlane;fontStyle=0;align=center;verticalAlign=top;childLayout=stackLayout;horizontal=1;startSize=55;horizontalStack=0;resizeParent=1;resizeParentMax=0;resizeLast=0;collapsible=0;marginBottom=0;html=1;fillColor=#008a00;fontColor=#ffffff;strokeColor=#005700;" parent="1" vertex="1">
                    <mxGeometry x="360" y="160" width="190" height="143" as="geometry"/>
                </mxCell>
                <mxCell id="11" value="attributes" style="text;html=1;strokeColor=none;fillColor=none;align=center;verticalAlign=middle;spacingLeft=4;spacingRight=4;overflow=hidden;rotatable=0;points=[[0,0.5],[1,0.5]];portConstraint=eastwest;" parent="10" vertex="1">
                    <mxGeometry y="55" width="190" height="20" as="geometry"/>
                </mxCell>
                <mxCell id="12" value="- estaciones: ArrayList&amp;lt;float&amp;gt;" style="text;html=1;strokeColor=none;fillColor=none;align=left;verticalAlign=middle;spacingLeft=4;spacingRight=4;overflow=hidden;rotatable=0;points=[[0,0.5],[1,0.5]];portConstraint=eastwest;" parent="10" vertex="1">
                    <mxGeometry y="75" width="190" height="20" as="geometry"/>
                </mxCell>
                <mxCell id="15" value="" style="line;strokeWidth=1;fillColor=#008a00;align=left;verticalAlign=middle;spacingTop=-1;spacingLeft=3;spacingRight=3;rotatable=0;labelPosition=right;points=[];portConstraint=eastwest;fontColor=#ffffff;strokeColor=#005700;" parent="10" vertex="1">
                    <mxGeometry y="95" width="190" height="8" as="geometry"/>
                </mxCell>
                <mxCell id="16" value="operations" style="text;html=1;strokeColor=none;fillColor=none;align=center;verticalAlign=middle;spacingLeft=4;spacingRight=4;overflow=hidden;rotatable=0;points=[[0,0.5],[1,0.5]];portConstraint=eastwest;" parent="10" vertex="1">
                    <mxGeometry y="103" width="190" height="20" as="geometry"/>
                </mxCell>
                <mxCell id="17" value="+ getEstacion: ArrayList&amp;lt;float&amp;gt;" style="text;html=1;strokeColor=none;fillColor=none;align=left;verticalAlign=middle;spacingLeft=4;spacingRight=4;overflow=hidden;rotatable=0;points=[[0,0.5],[1,0.5]];portConstraint=eastwest;" parent="10" vertex="1">
                    <mxGeometry y="123" width="190" height="20" as="geometry"/>
                </mxCell>
                <mxCell id="28" style="edgeStyle=none;html=1;entryX=0.5;entryY=0;entryDx=0;entryDy=0;fontColor=#B3B3B3;" edge="1" parent="1" source="19" target="2">
                    <mxGeometry relative="1" as="geometry"/>
                </mxCell>
                <mxCell id="19" value="&amp;lt;&amp;lt;keyword&amp;gt;&amp;gt;&lt;br&gt;&lt;b&gt;IRadio&lt;/b&gt;&lt;br&gt;{interface}" style="swimlane;fontStyle=0;align=center;verticalAlign=top;childLayout=stackLayout;horizontal=1;startSize=55;horizontalStack=0;resizeParent=1;resizeParentMax=0;resizeLast=0;collapsible=0;marginBottom=0;html=1;fillColor=#1ba1e2;fontColor=#ffffff;strokeColor=#006EAF;" vertex="1" parent="1">
                    <mxGeometry x="40" y="-220" width="260" height="280" as="geometry"/>
                </mxCell>
                <mxCell id="25" value="operations" style="text;html=1;strokeColor=none;fillColor=none;align=center;verticalAlign=middle;spacingLeft=4;spacingRight=4;overflow=hidden;rotatable=0;points=[[0,0.5],[1,0.5]];portConstraint=eastwest;" vertex="1" parent="19">
                    <mxGeometry y="55" width="260" height="20" as="geometry"/>
                </mxCell>
                <mxCell id="26" value="&lt;p style=&quot;line-height: 12px;&quot;&gt;+ SetOn():bool&lt;/p&gt;&lt;p style=&quot;line-height: 4.8px;&quot;&gt;+ SetVolume(int VolumeNumber): void&lt;/p&gt;&lt;p style=&quot;line-height: 4.8px;&quot;&gt;+ SetEstacion(Float Estacion, int Banda): void&lt;/p&gt;&lt;p style=&quot;line-height: 4.8px;&quot;&gt;+&lt;strong&gt;&amp;nbsp;&lt;/strong&gt;GetOn():bool&lt;/p&gt;&lt;p style=&quot;line-height: 4.8px;&quot;&gt;+ GetEstacion():float&lt;/p&gt;&lt;p style=&quot;line-height: 4.8px;&quot;&gt;+ GetBanda():int&lt;/p&gt;&lt;p style=&quot;line-height: 4.8px;&quot;&gt;+ GetVolume():int&lt;/p&gt;&lt;p style=&quot;line-height: 4.8px;&quot;&gt;+ guardarEstacion(estacion,banda,index): void&lt;/p&gt;&lt;p style=&quot;line-height: 4.8px;&quot;&gt;+ recuperarEstacion(index)&lt;/p&gt;" style="text;html=1;strokeColor=none;fillColor=none;align=left;verticalAlign=middle;spacingLeft=4;spacingRight=4;overflow=hidden;rotatable=0;points=[[0,0.5],[1,0.5]];portConstraint=eastwest;" vertex="1" parent="19">
                    <mxGeometry y="75" width="260" height="205" as="geometry"/>
                </mxCell>
                <mxCell id="27" style="edgeStyle=none;html=1;fontColor=#B3B3B3;entryX=0.007;entryY=-0.07;entryDx=0;entryDy=0;entryPerimeter=0;" edge="1" parent="1" source="4" target="16">
                    <mxGeometry relative="1" as="geometry">
                        <mxPoint x="420" y="260" as="targetPoint"/>
                    </mxGeometry>
                </mxCell>
            </root>
        </mxGraphModel>
    </diagram>
</mxfile>